<svg width="186" height="55" viewBox="0 0 186 55" fill="none" xmlns="http://www.w3.org/2000/svg">
<g clip-path="url(#clip0_28_17)">
<path d="M-1 41.9V41.5L0 41.14C0.53333 40.9267 0.94667 40.6733 1.24 40.38C1.53333 40.06 1.77333 39.62 1.96 39.06L10.2 15.42H13.6L21.72 39.22C21.9333 39.8067 22.1733 40.26 22.44 40.58C22.7067 40.8733 23.12 41.1267 23.68 41.34L24.16 41.5V41.9H14V41.5L14.6 41.3C15.16 41.0867 15.4933 40.7933 15.6 40.42C15.7333 40.02 15.72 39.5533 15.56 39.02L13.68 33.26H4.8L2.88 38.9C2.69333 39.4867 2.62667 39.9533 2.68 40.3C2.76 40.6467 3.08 40.9267 3.64 41.14L4.52 41.5V41.9H-1ZM5.08 32.46H13.44L9.4 20.02L5.08 32.46ZM23.9756 41.9V41.5L24.5756 41.3C25.4823 41.0067 25.9356 40.3533 25.9356 39.34V17.94C25.9356 17.4067 25.829 17.0067 25.6156 16.74C25.4023 16.4733 25.029 16.26 24.4956 16.1L23.9756 15.98V15.58L31.2956 13.86L31.7756 14.22L31.6556 19.82V39.34C31.6556 40.4067 32.0956 41.0733 32.9756 41.34L33.5356 41.5V41.9H23.9756ZM38.8156 41.9L31.6956 31.9L39.0956 25.06C39.4423 24.74 39.6423 24.4067 39.6956 24.06C39.7756 23.6867 39.549 23.42 39.0156 23.26L38.3356 23.06V22.66H44.2956V23.06L43.0956 23.38C42.509 23.5667 42.029 23.7933 41.6556 24.06C41.309 24.3 40.8823 24.6467 40.3756 25.1L35.8956 29.3L43.0556 39.26C43.4823 39.8467 43.8823 40.3 44.2556 40.62C44.629 40.94 45.109 41.2067 45.6956 41.42L45.8556 41.5V41.9H38.8156ZM51.2997 42.5C49.753 42.5 48.4464 42.06 47.3797 41.18C46.3397 40.3 45.8197 39.0333 45.8197 37.38C45.8197 36.1267 46.4597 34.98 47.7397 33.94C49.0197 32.8733 51.033 32.0733 53.7797 31.54C54.2064 31.46 54.6864 31.38 55.2197 31.3C55.753 31.1933 56.313 31.0867 56.8997 30.98V27.82C56.8997 26.0067 56.673 24.74 56.2197 24.02C55.793 23.2733 55.113 22.9 54.1797 22.9C53.5397 22.9 53.033 23.1133 52.6597 23.54C52.2864 23.94 52.0464 24.6467 51.9397 25.66L51.8597 26.1C51.8064 27.2467 51.5264 28.0867 51.0197 28.62C50.513 29.1533 49.8864 29.42 49.1397 29.42C48.4464 29.42 47.873 29.2067 47.4197 28.78C46.9664 28.3533 46.7397 27.78 46.7397 27.06C46.7397 25.9667 47.113 25.0467 47.8597 24.3C48.633 23.5533 49.6464 22.9933 50.8997 22.62C52.153 22.2467 53.513 22.06 54.9797 22.06C57.353 22.06 59.1797 22.6467 60.4597 23.82C61.7664 24.9667 62.4197 26.8467 62.4197 29.46V38.3C62.4197 39.5 62.9797 40.1 64.0997 40.1H64.9797L65.3397 40.42C64.833 41.06 64.273 41.5533 63.6597 41.9C63.073 42.2467 62.233 42.42 61.1397 42.42C59.9664 42.42 59.033 42.1533 58.3397 41.62C57.673 41.06 57.233 40.3267 57.0197 39.42C56.2197 40.2733 55.393 41.0067 54.5397 41.62C53.713 42.2067 52.633 42.5 51.2997 42.5ZM53.7397 40.06C54.273 40.06 54.7664 39.94 55.2197 39.7C55.6997 39.4333 56.2597 39.0333 56.8997 38.5V31.78C56.633 31.8333 56.3664 31.8867 56.0997 31.94C55.833 31.9933 55.5264 32.0467 55.1797 32.1C53.953 32.42 52.9664 32.9667 52.2197 33.74C51.4997 34.4867 51.1397 35.5 51.1397 36.78C51.1397 37.8733 51.393 38.7 51.8997 39.26C52.4064 39.7933 53.0197 40.06 53.7397 40.06ZM71.4828 42.5C70.1761 42.5 69.0028 42.34 67.9628 42.02C66.9228 41.7267 65.9628 41.3533 65.0828 40.9L65.1228 36.14H65.5228L66.8828 38.54C67.4695 39.6067 68.1095 40.4067 68.8028 40.94C69.5228 41.4467 70.4295 41.7 71.5228 41.7C72.8028 41.7 73.8295 41.42 74.6028 40.86C75.4028 40.2733 75.8028 39.5 75.8028 38.54C75.8028 37.66 75.5228 36.94 74.9628 36.38C74.4028 35.82 73.3628 35.3133 71.8428 34.86L70.1628 34.34C68.5361 33.86 67.2561 33.1133 66.3228 32.1C65.3895 31.0867 64.9228 29.8467 64.9228 28.38C64.9228 26.62 65.6161 25.1267 67.0028 23.9C68.3895 22.6733 70.3761 22.06 72.9628 22.06C74.0028 22.06 74.9761 22.18 75.8828 22.42C76.8161 22.6333 77.7095 22.9667 78.5628 23.42L78.3228 27.74H77.9228L76.5228 25.26C76.0161 24.38 75.5095 23.7667 75.0028 23.42C74.5228 23.0467 73.7895 22.86 72.8028 22.86C71.8961 22.86 71.0428 23.1133 70.2428 23.62C69.4428 24.1267 69.0428 24.8467 69.0428 25.78C69.0428 26.6867 69.3761 27.4067 70.0428 27.94C70.7361 28.4733 71.7495 28.9667 73.0828 29.42L74.8828 29.94C76.8028 30.5267 78.1761 31.34 79.0028 32.38C79.8295 33.3933 80.2428 34.62 80.2428 36.06C80.2428 38.0067 79.4695 39.5667 77.9228 40.74C76.4028 41.9133 74.2561 42.5 71.4828 42.5ZM85.9903 42.5C84.4436 42.5 83.137 42.06 82.0703 41.18C81.0303 40.3 80.5103 39.0333 80.5103 37.38C80.5103 36.1267 81.1503 34.98 82.4303 33.94C83.7103 32.8733 85.7236 32.0733 88.4703 31.54C88.897 31.46 89.377 31.38 89.9103 31.3C90.4436 31.1933 91.0036 31.0867 91.5903 30.98V27.82C91.5903 26.0067 91.3636 24.74 90.9103 24.02C90.4836 23.2733 89.8036 22.9 88.8703 22.9C88.2303 22.9 87.7236 23.1133 87.3503 23.54C86.977 23.94 86.737 24.6467 86.6303 25.66L86.5503 26.1C86.497 27.2467 86.217 28.0867 85.7103 28.62C85.2036 29.1533 84.577 29.42 83.8303 29.42C83.137 29.42 82.5636 29.2067 82.1103 28.78C81.657 28.3533 81.4303 27.78 81.4303 27.06C81.4303 25.9667 81.8036 25.0467 82.5503 24.3C83.3236 23.5533 84.337 22.9933 85.5903 22.62C86.8436 22.2467 88.2036 22.06 89.6703 22.06C92.0436 22.06 93.8703 22.6467 95.1503 23.82C96.457 24.9667 97.1103 26.8467 97.1103 29.46V38.3C97.1103 39.5 97.6703 40.1 98.79 40.1H99.67L100.03 40.42C99.524 41.06 98.964 41.5533 98.3503 41.9C97.7636 42.2467 96.9236 42.42 95.8303 42.42C94.657 42.42 93.7236 42.1533 93.0303 41.62C92.3636 41.06 91.9236 40.3267 91.7103 39.42C90.9103 40.2733 90.0836 41.0067 89.2303 41.62C88.4036 42.2067 87.3236 42.5 85.9903 42.5ZM88.4303 40.06C88.9636 40.06 89.457 39.94 89.9103 39.7C90.3903 39.4333 90.9503 39.0333 91.5903 38.5V31.78C91.3236 31.8333 91.057 31.8867 90.7903 31.94C90.5236 31.9933 90.217 32.0467 89.8703 32.1C88.6436 32.42 87.657 32.9667 86.9103 33.74C86.1903 34.4867 85.8303 35.5 85.8303 36.78C85.8303 37.8733 86.0836 38.7 86.5903 39.26C87.097 39.7933 87.7103 40.06 88.4303 40.06ZM108.641 42.332C106.793 42.332 105.185 41.996 103.817 41.324C102.449 40.652 101.393 39.716 100.649 38.516C99.905 37.316 99.533 35.924 99.533 34.34H102.701C102.701 35.324 102.917 36.236 103.349 37.076C103.781 37.892 104.441 38.552 105.329 39.056C106.217 39.536 107.333 39.776 108.677 39.776C109.757 39.776 110.705 39.62 111.521 39.308C112.337 38.972 112.973 38.492 113.429 37.868C113.885 37.22 114.113 36.44 114.113 35.528C114.113 34.592 113.897 33.824 113.465 33.224C113.057 32.6 112.481 32.084 111.737 31.676C111.017 31.268 110.213 30.92 109.325 30.632C108.437 30.32 107.525 30.008 106.589 29.696C104.453 28.952 102.881 28.052 101.873 26.996C100.889 25.916 100.397 24.572 100.397 22.964C100.397 21.668 100.709 20.516 101.333 19.508C101.981 18.5 102.893 17.708 104.069 17.132C105.269 16.556 106.685 16.268 108.317 16.268C109.925 16.268 111.317 16.568 112.493 17.168C113.693 17.768 114.629 18.596 115.301 19.652C115.973 20.684 116.309 21.884 116.309 23.252H113.141C113.141 22.412 112.949 21.656 112.565 20.984C112.181 20.312 111.617 19.772 110.873 19.364C110.153 18.956 109.229 18.752 108.101 18.752C107.213 18.752 106.409 18.896 105.689 19.184C104.993 19.448 104.441 19.868 104.033 20.444C103.649 21.02 103.457 21.764 103.457 22.676C103.457 23.444 103.613 24.08 103.925 24.584C104.237 25.088 104.705 25.532 105.329 25.916C105.953 26.276 106.709 26.624 107.597 26.96C108.509 27.296 109.541 27.668 110.693 28.076C111.917 28.508 113.009 29.024 113.969 29.624C114.953 30.2 115.721 30.932 116.273 31.82C116.825 32.708 117.101 33.848 117.101 35.24C117.101 36.44 116.789 37.592 116.165 38.696C115.541 39.776 114.605 40.652 113.357 41.324C112.109 41.996 110.537 42.332 108.641 42.332ZM124.08 41.9C123 41.9 122.064 41.732 121.272 41.396C120.48 41.06 119.868 40.496 119.436 39.704C119.028 38.888 118.824 37.796 118.824 36.428V26.312H115.728V24.044H118.824L119.184 19.76H121.848V24.044H127.104V26.312H121.848V36.428C121.848 37.652 122.076 38.468 122.532 38.876C122.988 39.284 123.792 39.488 124.944 39.488H126.816V41.9H124.08ZM133.002 42.332C131.634 42.332 130.434 42.056 129.402 41.504C128.394 40.928 127.602 40.064 127.026 38.912C126.45 37.736 126.162 36.26 126.162 34.484V24.044H129.186V34.16C129.186 36.008 129.582 37.4 130.374 38.336C131.166 39.272 132.294 39.74 133.758 39.74C134.79 39.74 135.714 39.488 136.53 38.984C137.346 38.48 137.982 37.748 138.438 36.788C138.918 35.828 139.158 34.664 139.158 33.296V24.044H142.182V41.9H139.482L139.23 38.984H139.122C138.522 39.992 137.706 40.808 136.674 41.432C135.642 42.032 134.418 42.332 133.002 42.332ZM150.649 42.332C148.897 42.332 147.385 41.924 146.113 41.108C144.841 40.268 143.857 39.14 143.161 37.724C142.465 36.308 142.117 34.724 142.117 32.972C142.117 31.196 142.465 29.6 143.161 28.184C143.857 26.768 144.865 25.652 146.185 24.836C147.505 24.02 149.089 23.612 150.937 23.612C152.545 23.612 153.889 23.948 154.969 24.62C156.073 25.292 156.913 26.084 157.489 26.996V16.52H160.513V41.9H157.957L157.669 38.588H157.561C157.081 39.38 156.493 40.052 155.797 40.604C155.101 41.156 154.321 41.588 153.457 41.9C152.593 42.188 151.657 42.332 150.649 42.332ZM151.261 39.704C152.509 39.704 153.589 39.428 154.501 38.876C155.437 38.3 156.157 37.508 156.661 36.5C157.165 35.492 157.417 34.316 157.417 32.972C157.417 31.628 157.165 30.452 156.661 29.444C156.157 28.436 155.437 27.656 154.501 27.104C153.589 26.528 152.509 26.24 151.261 26.24C150.037 26.24 148.969 26.528 148.057 27.104C147.145 27.656 146.437 28.436 145.933 29.444C145.429 30.452 145.177 31.628 145.177 32.972C145.177 34.316 145.429 35.492 145.933 36.5C146.437 37.508 147.145 38.3 148.057 38.876C148.969 39.428 150.037 39.704 151.261 39.704ZM161.693 41.9V24.044H164.717V41.9H161.693ZM174.077 42.332C172.397 42.332 170.885 41.948 169.541 41.18C168.197 40.412 167.129 39.332 166.337 37.94C165.569 36.524 165.185 34.868 165.185 32.972C165.185 31.076 165.581 29.432 166.373 28.04C167.165 26.624 168.233 25.532 169.577 24.764C170.945 23.996 172.469 23.612 174.149 23.612C175.829 23.612 177.341 23.996 178.685 24.764C180.029 25.532 181.085 26.624 181.853 28.04C182.645 29.432 183.041 31.076 183.041 32.972C183.041 34.868 182.645 36.524 181.853 37.94C181.061 39.332 179.981 40.412 178.613 41.18C177.269 41.948 175.757 42.332 174.077 42.332ZM174.077 39.92C175.109 39.92 176.069 39.668 176.957 39.164C177.845 38.636 178.565 37.868 179.117 36.86C179.669 35.828 179.945 34.532 179.945 32.972C179.945 31.412 179.669 30.116 179.117 29.084C178.589 28.052 177.881 27.284 176.993 26.78C176.105 26.276 175.157 26.024 174.149 26.024C173.141 26.024 172.181 26.276 171.269 26.78C170.381 27.284 169.661 28.052 169.109 29.084C168.557 30.116 168.281 31.412 168.281 32.972C168.281 34.532 168.557 35.828 169.109 36.86C169.661 37.868 170.369 38.636 171.233 39.164C172.121 39.668 173.069 39.92 174.077 39.92Z" fill="black"/>
<mask id="mask0_28_17" style="mask-type:luminance" maskUnits="userSpaceOnUse" x="159" y="17" width="8" height="8">
<path d="M163.92 17.8848L159.885 20.4357L162.436 24.4713L166.471 21.9203L163.92 17.8848Z" fill="white"/>
</mask>
<g mask="url(#mask0_28_17)">
<path d="M163.904 23.0108L163.157 21.5824L162.539 23.0486L161.887 22.7011L162.783 21.3826L161.221 21.6189L161.185 20.9098L162.792 20.9807L161.813 19.6974L162.418 19.3179L163.139 20.763L163.765 19.2913L164.374 19.6288L163.492 20.9506L165.069 20.7177L165.105 21.4268L163.513 21.3592L164.491 22.6424L163.904 23.0108Z" fill="black"/>
</g>
</g>
<defs>
<clipPath id="clip0_28_17">
<rect width="186" height="55" fill="white"/>
</clipPath>
</defs>
</svg>
