<svg width="102" height="32" viewBox="0 0 102 32" fill="none" xmlns="http://www.w3.org/2000/svg">
<g clip-path="url(#clip0_105_68)">
<path d="M16.52 28.6H12.24L3.52 20.36V18.44L12.24 10.16H16.52L6.72 19.4L16.52 28.6ZM19.5922 30L29.1522 2H34.3522L43.7522 30H40.1922L31.8322 4.48H31.6722L23.1122 30H19.5922ZM24.3122 21.24L25.2722 18.52H37.9522L38.9122 21.24H24.3122ZM44.3225 33.8L54.3625 -0.560002H57.6825L47.6425 33.8H44.3225ZM69.2247 30.48C67.1714 30.48 65.3847 30.1067 63.8647 29.36C62.3447 28.6133 61.1714 27.5733 60.3447 26.24C59.518 24.9067 59.1047 23.36 59.1047 21.6H62.6247C62.6247 22.6933 62.8647 23.7067 63.3447 24.64C63.8247 25.5467 64.558 26.28 65.5447 26.84C66.5314 27.3733 67.7714 27.64 69.2647 27.64C70.4647 27.64 71.518 27.4667 72.4247 27.12C73.3314 26.7733 74.038 26.2533 74.5447 25.56C75.078 24.8667 75.3447 24 75.3447 22.96C75.3447 21.92 75.1047 21.0667 74.6247 20.4C74.1714 19.7067 73.5447 19.1333 72.7447 18.68C71.9447 18.2267 71.0514 17.84 70.0647 17.52C69.1047 17.1733 68.118 16.8267 67.1047 16.48C64.678 15.6267 62.8914 14.6 61.7447 13.4C60.6247 12.1733 60.0647 10.6667 60.0647 8.88C60.0647 7.46667 60.4114 6.21333 61.1047 5.12C61.8247 4 62.838 3.12 64.1447 2.48C65.478 1.84 67.0514 1.52 68.8647 1.52C70.6514 1.52 72.198 1.85333 73.5047 2.52C74.838 3.18666 75.878 4.10666 76.6247 5.28C77.3714 6.42666 77.7447 7.76 77.7447 9.28H74.2247C74.2247 8.29333 74.0114 7.42667 73.5847 6.68C73.158 5.93333 72.5314 5.34667 71.7047 4.92C70.878 4.46666 69.838 4.24 68.5847 4.24C67.598 4.24 66.7047 4.38667 65.9047 4.68C65.1314 4.97333 64.518 5.44 64.0647 6.08C63.638 6.72 63.4247 7.54667 63.4247 8.56C63.4247 9.41333 63.598 10.12 63.9447 10.68C64.2914 11.24 64.798 11.7333 65.4647 12.16C66.158 12.56 66.998 12.96 67.9847 13.36C68.998 13.7333 70.158 14.16 71.4647 14.64C72.8247 15.12 74.038 15.6933 75.1047 16.36C76.198 17 77.0514 17.8133 77.6647 18.8C78.3047 19.7867 78.6247 21.04 78.6247 22.56C78.6247 23.92 78.278 25.2133 77.5847 26.44C76.8914 27.64 75.8514 28.6133 74.4647 29.36C73.078 30.1067 71.3314 30.48 69.2247 30.48ZM83.3081 28.6L93.1081 19.4L83.3081 10.16H87.5881L96.3081 18.44V20.36L87.5881 28.6H83.3081Z" fill="black"/>
</g>
<defs>
<clipPath id="clip0_105_68">
<rect width="102" height="32" fill="white"/>
</clipPath>
</defs>
</svg>
