<svg width="234" height="32" viewBox="0 0 234 32" fill="none" xmlns="http://www.w3.org/2000/svg">
<g clip-path="url(#clip0_103_51)">
<path d="M16.52 28.6H12.24L3.52 20.36V18.44L12.24 10.16H16.52L6.72 19.4L16.52 28.6ZM19.5922 30L29.1522 2H34.3522L43.7522 30H40.1922L31.8322 4.48H31.6722L23.1122 30H19.5922ZM24.3122 21.24L25.2722 18.52H37.9522L38.9122 21.24H24.3122ZM56.6025 30L46.9625 19.08L55.6425 10.16H59.7625L49.8425 20.28V17.88L60.8825 30H56.6025ZM44.1625 30V2H47.5225V30H44.1625ZM67.2075 30.48C65.6342 30.48 64.3142 30.2 63.2475 29.64C62.1808 29.08 61.3808 28.3333 60.8475 27.4C60.3408 26.4667 60.0875 25.4533 60.0875 24.36C60.0875 23 60.4342 21.8533 61.1275 20.92C61.8475 19.9867 62.8475 19.28 64.1275 18.8C65.4342 18.2933 66.9675 18.04 68.7275 18.04H74.0875C74.0875 16.7333 73.8875 15.6533 73.4875 14.8C73.0875 13.9467 72.5142 13.32 71.7675 12.92C71.0208 12.4933 70.1275 12.28 69.0875 12.28C67.7808 12.28 66.6475 12.6133 65.6875 13.28C64.7275 13.9467 64.1408 14.9733 63.9275 16.36H60.4875C60.6475 14.92 61.1142 13.7067 61.8875 12.72C62.6875 11.7333 63.7008 10.9867 64.9275 10.48C66.1808 9.94667 67.5675 9.68 69.0875 9.68C70.9808 9.68 72.5408 10.0267 73.7675 10.72C75.0208 11.3867 75.9408 12.3333 76.5275 13.56C77.1408 14.76 77.4475 16.1733 77.4475 17.8V30H74.6475L74.3275 26.6H74.1675C73.7942 27.24 73.3542 27.8 72.8475 28.28C72.3675 28.76 71.8342 29.16 71.2475 29.48C70.6608 29.8 70.0208 30.04 69.3275 30.2C68.6608 30.3867 67.9542 30.48 67.2075 30.48ZM67.8075 27.64C68.8208 27.64 69.7142 27.4533 70.4875 27.08C71.2608 26.68 71.9142 26.1467 72.4475 25.48C72.9808 24.8133 73.3808 24.0667 73.6475 23.24C73.9408 22.3867 74.0875 21.52 74.0875 20.64H69.0075C67.7008 20.64 66.6475 20.8 65.8475 21.12C65.0475 21.4133 64.4742 21.8267 64.1275 22.36C63.7808 22.8933 63.6075 23.5067 63.6075 24.2C63.6075 24.8933 63.7675 25.5067 64.0875 26.04C64.4342 26.5467 64.9142 26.9467 65.5275 27.24C66.1675 27.5067 66.9275 27.64 67.8075 27.64ZM86.5284 30.48C84.9551 30.48 83.5418 30.2133 82.2884 29.68C81.0351 29.12 80.0218 28.3467 79.2484 27.36C78.5018 26.3467 78.0351 25.16 77.8484 23.8H81.2884C81.4484 24.4667 81.7151 25.12 82.0884 25.76C82.4884 26.3733 83.0484 26.88 83.7684 27.28C84.5151 27.68 85.4484 27.88 86.5684 27.88C87.5284 27.88 88.3151 27.7467 88.9284 27.48C89.5418 27.1867 89.9951 26.8133 90.2884 26.36C90.6084 25.88 90.7684 25.36 90.7684 24.8C90.7684 24.1067 90.5684 23.5467 90.1684 23.12C89.7684 22.6933 89.1818 22.3333 88.4084 22.04C87.6618 21.72 86.7684 21.4133 85.7284 21.12C84.9284 20.88 84.1151 20.6267 83.2884 20.36C82.4618 20.0667 81.7018 19.72 81.0084 19.32C80.3418 18.92 79.7951 18.4 79.3684 17.76C78.9684 17.12 78.7684 16.32 78.7684 15.36C78.7684 14.2933 79.0618 13.3333 79.6484 12.48C80.2351 11.6267 81.0618 10.9467 82.1284 10.44C83.2218 9.93333 84.5018 9.68 85.9684 9.68C88.0751 9.68 89.7951 10.2 91.1284 11.24C92.4884 12.28 93.2751 13.7867 93.4884 15.76H90.1684C90.0618 14.64 89.6351 13.7867 88.8884 13.2C88.1684 12.5867 87.1818 12.28 85.9284 12.28C84.7018 12.28 83.7551 12.5467 83.0884 13.08C82.4484 13.6133 82.1284 14.28 82.1284 15.08C82.1284 15.6133 82.2884 16.0533 82.6084 16.4C82.9284 16.7467 83.4351 17.0533 84.1284 17.32C84.8484 17.56 85.7551 17.8533 86.8484 18.2C88.0751 18.5733 89.2351 18.9867 90.3284 19.44C91.4484 19.8933 92.3551 20.4933 93.0484 21.24C93.7684 21.96 94.1284 22.9467 94.1284 24.2C94.1551 25.4267 93.8484 26.52 93.2084 27.48C92.5951 28.4133 91.7151 29.1467 90.5684 29.68C89.4484 30.2133 88.1018 30.48 86.5284 30.48ZM101.664 30.48C100.09 30.48 98.7704 30.2 97.7038 29.64C96.6371 29.08 95.8371 28.3333 95.3038 27.4C94.7971 26.4667 94.5438 25.4533 94.5438 24.36C94.5438 23 94.8904 21.8533 95.5838 20.92C96.3038 19.9867 97.3038 19.28 98.5838 18.8C99.8904 18.2933 101.424 18.04 103.184 18.04H108.544C108.544 16.7333 108.344 15.6533 107.944 14.8C107.544 13.9467 106.97 13.32 106.224 12.92C105.477 12.4933 104.584 12.28 103.544 12.28C102.237 12.28 101.104 12.6133 100.144 13.28C99.1838 13.9467 98.5971 14.9733 98.3838 16.36H94.9438C95.1038 14.92 95.5704 13.7067 96.3438 12.72C97.1438 11.7333 98.1571 10.9867 99.3838 10.48C100.637 9.94667 102.024 9.68 103.544 9.68C105.437 9.68 106.997 10.0267 108.224 10.72C109.477 11.3867 110.397 12.3333 110.984 13.56C111.597 14.76 111.904 16.1733 111.904 17.8V30H109.104L108.784 26.6H108.624C108.25 27.24 107.81 27.8 107.304 28.28C106.824 28.76 106.29 29.16 105.704 29.48C105.117 29.8 104.477 30.04 103.784 30.2C103.117 30.3867 102.41 30.48 101.664 30.48ZM102.264 27.64C103.277 27.64 104.17 27.4533 104.944 27.08C105.717 26.68 106.37 26.1467 106.904 25.48C107.437 24.8133 107.837 24.0667 108.104 23.24C108.397 22.3867 108.544 21.52 108.544 20.64H103.464C102.157 20.64 101.104 20.8 100.304 21.12C99.5038 21.4133 98.9304 21.8267 98.5838 22.36C98.2371 22.8933 98.0638 23.5067 98.0638 24.2C98.0638 24.8933 98.2238 25.5067 98.5438 26.04C98.8904 26.5467 99.3704 26.9467 99.9838 27.24C100.624 27.5067 101.384 27.64 102.264 27.64ZM122.825 30.48C120.771 30.48 118.985 30.1067 117.465 29.36C115.945 28.6133 114.771 27.5733 113.945 26.24C113.118 24.9067 112.705 23.36 112.705 21.6H116.225C116.225 22.6933 116.465 23.7067 116.945 24.64C117.425 25.5467 118.158 26.28 119.145 26.84C120.131 27.3733 121.371 27.64 122.865 27.64C124.065 27.64 125.118 27.4667 126.025 27.12C126.931 26.7733 127.638 26.2533 128.145 25.56C128.678 24.8667 128.945 24 128.945 22.96C128.945 21.92 128.705 21.0667 128.225 20.4C127.771 19.7067 127.145 19.1333 126.345 18.68C125.545 18.2267 124.651 17.84 123.665 17.52C122.705 17.1733 121.718 16.8267 120.705 16.48C118.278 15.6267 116.491 14.6 115.345 13.4C114.225 12.1733 113.665 10.6667 113.665 8.88C113.665 7.46667 114.011 6.21333 114.705 5.12C115.425 4 116.438 3.12 117.745 2.48C119.078 1.84 120.651 1.52 122.465 1.52C124.251 1.52 125.798 1.85333 127.105 2.52C128.438 3.18666 129.478 4.10666 130.225 5.28C130.971 6.42666 131.345 7.76 131.345 9.28H127.825C127.825 8.29333 127.611 7.42667 127.185 6.68C126.758 5.93333 126.131 5.34667 125.305 4.92C124.478 4.46666 123.438 4.24 122.185 4.24C121.198 4.24 120.305 4.38667 119.505 4.68C118.731 4.97333 118.118 5.44 117.665 6.08C117.238 6.72 117.025 7.54667 117.025 8.56C117.025 9.41333 117.198 10.12 117.545 10.68C117.891 11.24 118.398 11.7333 119.065 12.16C119.758 12.56 120.598 12.96 121.585 13.36C122.598 13.7333 123.758 14.16 125.065 14.64C126.425 15.12 127.638 15.6933 128.705 16.36C129.798 17 130.651 17.8133 131.265 18.8C131.905 19.7867 132.225 21.04 132.225 22.56C132.225 23.92 131.878 25.2133 131.185 26.44C130.491 27.64 129.451 28.6133 128.065 29.36C126.678 30.1067 124.931 30.48 122.825 30.48ZM141.108 30C139.908 30 138.868 29.8133 137.988 29.44C137.108 29.0667 136.428 28.44 135.948 27.56C135.495 26.6533 135.268 25.44 135.268 23.92V12.56H131.828V10.16H135.268L135.668 5.4H138.628V10.16H144.468V12.56H138.628V23.92C138.628 25.3067 138.881 26.24 139.388 26.72C139.895 27.1733 140.788 27.4 142.068 27.4H144.148V30H141.108ZM152.075 30.48C150.555 30.48 149.222 30.1733 148.075 29.56C146.955 28.92 146.075 27.96 145.435 26.68C144.795 25.3733 144.475 23.7333 144.475 21.76V10.16H147.835V21.4C147.835 23.4533 148.275 25 149.155 26.04C150.035 27.08 151.302 27.6 152.955 27.6C154.102 27.6 155.115 27.32 155.995 26.76C156.902 26.2 157.608 25.3867 158.115 24.32C158.648 23.2533 158.915 21.96 158.915 20.44V10.16H162.275V30H159.315L158.995 26.88H158.835C158.168 27.9467 157.262 28.8133 156.115 29.48C154.995 30.1467 153.648 30.48 152.075 30.48ZM172.616 30.48C170.696 30.48 169.03 30.0267 167.616 29.12C166.23 28.1867 165.15 26.9333 164.376 25.36C163.63 23.7867 163.256 22.0267 163.256 20.08C163.256 18.1333 163.63 16.3733 164.376 14.8C165.15 13.2267 166.27 11.9867 167.736 11.08C169.203 10.1467 170.976 9.68 173.056 9.68C174.896 9.68 176.403 10.0667 177.576 10.84C178.776 11.6133 179.696 12.48 180.336 13.44V2H183.696V30H180.896L180.576 26.2H180.416C179.856 27.16 179.163 27.96 178.336 28.6C177.536 29.2133 176.656 29.68 175.696 30C174.736 30.32 173.71 30.48 172.616 30.48ZM173.416 27.56C174.803 27.56 176.003 27.2533 177.016 26.64C178.056 26 178.856 25.12 179.416 24C179.976 22.88 180.256 21.5733 180.256 20.08C180.256 18.5867 179.976 17.28 179.416 16.16C178.856 15.04 178.056 14.1733 177.016 13.56C176.003 12.92 174.803 12.6 173.416 12.6C172.03 12.6 170.83 12.92 169.816 13.56C168.803 14.1733 168.016 15.04 167.456 16.16C166.923 17.28 166.656 18.5867 166.656 20.08C166.656 21.5733 166.923 22.88 167.456 24C168.016 25.12 168.803 26 169.816 26.64C170.83 27.2533 172.03 27.56 173.416 27.56ZM186.178 30V10.16H189.538V30H186.178ZM187.858 6.2C187.192 6.2 186.632 5.97333 186.178 5.52C185.725 5.06667 185.498 4.50667 185.498 3.84C185.498 3.2 185.725 2.65333 186.178 2.2C186.632 1.74667 187.192 1.52 187.858 1.52C188.498 1.52 189.045 1.74667 189.498 2.2C189.952 2.65333 190.178 3.21333 190.178 3.88C190.178 4.52 189.952 5.06667 189.498 5.52C189.045 5.97333 188.498 6.2 187.858 6.2ZM201.069 30.48C199.202 30.48 197.522 30.0533 196.029 29.2C194.536 28.3467 193.349 27.1467 192.469 25.6C191.616 24.0267 191.189 22.1867 191.189 20.08C191.189 17.9733 191.629 16.1467 192.509 14.6C193.389 13.0267 194.576 11.8133 196.069 10.96C197.589 10.1067 199.282 9.68 201.149 9.68C203.016 9.68 204.696 10.1067 206.189 10.96C207.682 11.8133 208.856 13.0267 209.709 14.6C210.589 16.1467 211.029 17.9733 211.029 20.08C211.029 22.1867 210.589 24.0267 209.709 25.6C208.829 27.1467 207.629 28.3467 206.109 29.2C204.616 30.0533 202.936 30.48 201.069 30.48ZM201.069 27.88C202.216 27.88 203.282 27.6 204.269 27.04C205.256 26.4533 206.056 25.5867 206.669 24.44C207.282 23.2933 207.589 21.84 207.589 20.08C207.589 18.32 207.282 16.8667 206.669 15.72C206.082 14.5467 205.296 13.68 204.309 13.12C203.322 12.56 202.269 12.28 201.149 12.28C200.029 12.28 198.962 12.56 197.949 13.12C196.962 13.68 196.162 14.5467 195.549 15.72C194.936 16.8667 194.629 18.32 194.629 20.08C194.629 21.84 194.936 23.2933 195.549 24.44C196.162 25.5867 196.949 26.4533 197.909 27.04C198.896 27.6 199.949 27.88 201.069 27.88ZM214.905 28.6L224.705 19.4L214.905 10.16H219.185L227.905 18.44V20.36L219.185 28.6H214.905Z" fill="black"/>
</g>
<defs>
<clipPath id="clip0_103_51">
<rect width="234" height="32" fill="white"/>
</clipPath>
</defs>
</svg>
